#N canvas 733 172 512 87 12;
#X obj 57 11 knob 39 0 127 0 0 empty \$0-pc0 #ffff00 #0000ff #ff 0 0 0 0 1 360 180 0 0;
#X obj 81 18 knob 39 0 127 0 0 empty \$0-pc1 #0000 #0000ff #ff 0 0 0 0 1 360 180 0 0;
#X obj 99 36 knob 39 0 127 0 0 empty \$0-pc2 #0000 #0000ff #ff 0 0 0 0 1 360 180 0 0;
#X obj 106 60 knob 39 0 127 0 0 empty \$0-pc3 #000000 #0000ff #ff 0 0 0 0 1 360 180 0 0;
#X obj 8 60 knob 39 0 127 0 0 empty \$0-pc9 #0000 #0000ff #ff 0 0 0 0 1 360 180 0 0;
#X obj 99 85 knob 39 0 127 0 0 empty \$0-pc4 #0000 #0000ff #ff 0 0 0 0 1 360 180 0 0;
#X obj 81 102 knob 39 0 127 0 0 empty \$0-pc5 #000000 #0000ff #ff 0 0 0 0 1 360 180 0 0;
#X obj 57 109 knob 39 0 127 0 0 empty \$0-pc6 #0000 #0000ff #ff 0 0 0 0 1 360 180 0 0;
#X obj 33 102 knob 39 0 127 0 0 empty \$0-pc7 #000000 #0000ff #ff 0 0 0 0 1 360 180 0 0;
#X obj 15 84 knob 39 0 127 0 0 empty \$0-pc8 #0000 #0000ff #ff 0 0 0 0 1 360 180 0 0;
#X obj 15 36 knob 39 0 127 0 0 empty \$0-pc10 #000000 #0000ff #ff 0 0 0 0 1 360 180 0 0;
#X obj 33 18 knob 39 0 127 0 0 empty \$0-pc11 #0000 #0000ff #ff 0 0 0 0 1 360 180 0 0;
#X obj -181 -111 t b f;
#X obj -178 -152 loop 0 11 1;
#X obj -182 -228 bng 25 250 50 0 empty empty empty 17 7 0 10 #e4e4e4 #4d4d4d #373737;
#X obj -299 -94 f;
#X msg -165 -391 60 15 43 17 22;
#X obj -362 -178 mod 12;
#X obj -286 -241 note2midi;
#X obj -288 23 router 12;
#X obj -343 98 s \$0-pc0;
#X obj -323 124 s \$0-pc1;
#X obj -310 162 s \$0-pc2;
#X obj -282 198 s \$0-pc3;
#X obj -266 231 s \$0-pc4;
#X obj -253 262 s \$0-pc5;
#X obj -191 287 s \$0-pc6;
#X obj -166 262 s \$0-pc7;
#X obj -149 234 s \$0-pc8;
#X obj -129 207 s \$0-pc9;
#X obj -107 184 s \$0-pc10;
#X obj -87 156 s \$0-pc11;
#X msg -500 -400 C4 Eb0 G2 D#2 F0 A#0;
#X msg 46 -379 2;
#X obj -224 -398 bng 25 250 50 0 empty empty empty 17 7 0 10 #e4e4e4 #4d4d4d #373737;
#X msg -49 -391 C#0;
#X obj -333 -433 inlet Note List;
#X obj -327 -296 else/routetype f l a b;
#X msg -16 -134 bgcolor #FF0000;
#X msg 103 -134 bgcolor #FFA500;
#X msg 221 -134 bgcolor #FFFF00;
#X msg 339 -134 bgcolor #00FF00;
#X msg 458 -134 bgcolor #008000;
#X msg 577 -134 bgcolor #00FFFF;
#X msg 695 -134 bgcolor #87CEEB;
#X msg 814 -134 bgcolor #0000FF;
#X msg 933 -134 bgcolor #4B0082;
#X msg 1053 -134 bgcolor #800080;
#X msg 1172 -134 bgcolor #FF00FF;
#X msg 1303 -132 bgcolor #FFC0CB;
#X msg -255 -76 bgcolor #0000;
#X msg -415 -92 bgcolor #0000ff;
#X msg -65 -271 a;
#X msg 1424 -132 bgcolor #FFC000;
#X obj -16 -160 cyclone/cycle 12;
#X msg -13 -291 set 0;
#X obj -361 -203 iterate;
#X obj -360 -241 t a b;
#X obj -362 -152 t b f;
#X msg -773 -283 a;
#X obj -795 -210 cyclone/cycle 12;
#X msg -721 -303 set 0;
#X msg -677 -89 bgcolor #000000;
#X msg -841 -76 bgcolor #FFFF00;
#X connect 12 0 50 0;
#X connect 12 1 19 1;
#X connect 13 0 12 0;
#X connect 14 0 13 0;
#X connect 15 0 19 1;
#X connect 16 0 37 0;
#X connect 17 0 58 0;
#X connect 18 0 57 0;
#X connect 19 0 20 0 32.................q....n7++++J....J++++iC....;
#X connect 19 1 21 0 32.................PA...z7+++OT....M++++KE....;
#X connect 19 2 22 0 32.................tA...j7+++ua....I++++iG....;
#X connect 19 3 23 0 32.................QB...L8+++ej....S++++yI....;
#X connect 19 4 24 0 32.................2B...H8++++s....R++++2K....;
#X connect 19 5 25 0 32.................TC...37+++O0....N++++yM....;
#X connect 19 6 26 0;
#X connect 19 7 27 0;
#X connect 19 8 28 0;
#X connect 19 9 29 0;
#X connect 19 10 30 0;
#X connect 19 11 31 0;
#X connect 32 0 37 0;
#X connect 33 0 37 0;
#X connect 34 0 37 0;
#X connect 35 0 37 0;
#X connect 36 0 37 0;
#X connect 37 0 57 0;
#X connect 37 1 57 0;
#X connect 37 2 18 0;
#X connect 37 3 14 0;
#X connect 38 0 19 0;
#X connect 39 0 19 0;
#X connect 40 0 19 0;
#X connect 41 0 19 0;
#X connect 42 0 19 0;
#X connect 43 0 19 0;
#X connect 44 0 19 0;
#X connect 45 0 19 0;
#X connect 46 0 19 0;
#X connect 47 0 19 0;
#X connect 48 0 19 0;
#X connect 49 0 19 0;
#X connect 50 0 19 0;
#X connect 51 0 19 0;
#X connect 52 0 54 0;
#X connect 53 0 19 1;
#X connect 54 0 38 0;
#X connect 54 1 39 0;
#X connect 54 2 40 0;
#X connect 54 3 41 0;
#X connect 54 4 42 0;
#X connect 54 5 43 0;
#X connect 54 6 44 0;
#X connect 54 7 45 0;
#X connect 54 8 46 0;
#X connect 54 9 47 0;
#X connect 54 10 48 0;
#X connect 54 11 49 0;
#X connect 55 0 54 0;
#X connect 56 0 17 0;
#X connect 57 0 56 0;
#X connect 57 1 61 0;
#X connect 58 0 59 0;
#X connect 58 1 15 0;
#X connect 59 0 60 0;
#X connect 60 0 63 0;
#X connect 60 1 62 0;
#X connect 60 2 62 0;
#X connect 60 3 62 0;
#X connect 60 4 62 0;
#X connect 60 5 62 0;
#X connect 60 6 62 0;
#X connect 60 7 62 0;
#X connect 60 8 62 0;
#X connect 60 9 62 0;
#X connect 60 10 62 0;
#X connect 60 11 62 0;
#X connect 61 0 60 0;
#X connect 62 0 19 0;
#X connect 63 0 19 0;
#X coords 0 0 1 1 150 158 1 0 0;
